<mxfile host="app.diagrams.net" modified="2023-04-05T08:22:04.361Z" agent="Mozilla/5.0 (Windows NT 10.0; Win64; x64) AppleWebKit/537.36 (KHTML, like Gecko) Chrome/110.0.0.0 YaBrowser/23.3.0.2246 Yowser/2.5 Safari/537.36" etag="JyCKKm3pKfvHTtcB40Te" version="21.1.4" type="device">
  <diagram name="Страница 1" id="hsBZY_MksG6TeOUjUni8">
    <mxGraphModel dx="910" dy="508" grid="1" gridSize="10" guides="1" tooltips="1" connect="1" arrows="1" fold="1" page="1" pageScale="1" pageWidth="827" pageHeight="1169" math="0" shadow="0">
      <root>
        <mxCell id="0" />
        <mxCell id="1" parent="0" />
        <mxCell id="8tFCOXeWuZoLk0ZFm1Za-11" value="" style="edgeStyle=orthogonalEdgeStyle;rounded=0;orthogonalLoop=1;jettySize=auto;html=1;" edge="1" parent="1" source="8tFCOXeWuZoLk0ZFm1Za-1" target="8tFCOXeWuZoLk0ZFm1Za-5">
          <mxGeometry relative="1" as="geometry" />
        </mxCell>
        <mxCell id="8tFCOXeWuZoLk0ZFm1Za-1" value="string[] array&lt;br&gt;string[] newArray&lt;br&gt;int count" style="shape=parallelogram;perimeter=parallelogramPerimeter;whiteSpace=wrap;html=1;fixedSize=1;" vertex="1" parent="1">
          <mxGeometry x="354" y="150" width="120" height="60" as="geometry" />
        </mxCell>
        <mxCell id="8tFCOXeWuZoLk0ZFm1Za-10" value="" style="edgeStyle=orthogonalEdgeStyle;rounded=0;orthogonalLoop=1;jettySize=auto;html=1;" edge="1" parent="1" source="8tFCOXeWuZoLk0ZFm1Za-3" target="8tFCOXeWuZoLk0ZFm1Za-1">
          <mxGeometry relative="1" as="geometry" />
        </mxCell>
        <mxCell id="8tFCOXeWuZoLk0ZFm1Za-3" value="Start" style="rounded=1;whiteSpace=wrap;html=1;" vertex="1" parent="1">
          <mxGeometry x="354" y="40" width="120" height="60" as="geometry" />
        </mxCell>
        <mxCell id="8tFCOXeWuZoLk0ZFm1Za-8" value="" style="edgeStyle=orthogonalEdgeStyle;rounded=0;orthogonalLoop=1;jettySize=auto;html=1;" edge="1" parent="1" source="8tFCOXeWuZoLk0ZFm1Za-5" target="8tFCOXeWuZoLk0ZFm1Za-6">
          <mxGeometry relative="1" as="geometry" />
        </mxCell>
        <mxCell id="8tFCOXeWuZoLk0ZFm1Za-12" value="" style="edgeStyle=orthogonalEdgeStyle;rounded=0;orthogonalLoop=1;jettySize=auto;html=1;" edge="1" parent="1" source="8tFCOXeWuZoLk0ZFm1Za-5" target="8tFCOXeWuZoLk0ZFm1Za-9">
          <mxGeometry relative="1" as="geometry" />
        </mxCell>
        <mxCell id="8tFCOXeWuZoLk0ZFm1Za-5" value="i &amp;lt; array.Length" style="rhombus;whiteSpace=wrap;html=1;" vertex="1" parent="1">
          <mxGeometry x="299" y="260" width="230" height="90" as="geometry" />
        </mxCell>
        <mxCell id="8tFCOXeWuZoLk0ZFm1Za-14" value="" style="edgeStyle=orthogonalEdgeStyle;rounded=0;orthogonalLoop=1;jettySize=auto;html=1;" edge="1" parent="1" source="8tFCOXeWuZoLk0ZFm1Za-6" target="8tFCOXeWuZoLk0ZFm1Za-13">
          <mxGeometry relative="1" as="geometry" />
        </mxCell>
        <mxCell id="8tFCOXeWuZoLk0ZFm1Za-6" value="array[i].Lenght&amp;lt;=3" style="rhombus;whiteSpace=wrap;html=1;" vertex="1" parent="1">
          <mxGeometry x="292" y="420" width="244" height="80" as="geometry" />
        </mxCell>
        <mxCell id="8tFCOXeWuZoLk0ZFm1Za-9" value="" style="shape=document;whiteSpace=wrap;html=1;boundedLbl=1;" vertex="1" parent="1">
          <mxGeometry x="660" y="265" width="120" height="80" as="geometry" />
        </mxCell>
        <mxCell id="8tFCOXeWuZoLk0ZFm1Za-13" value="&lt;div&gt;newArray[count] = array[i];&lt;/div&gt;&lt;div&gt;&amp;nbsp; &amp;nbsp; &amp;nbsp; &amp;nbsp; count++;&lt;/div&gt;" style="whiteSpace=wrap;html=1;" vertex="1" parent="1">
          <mxGeometry x="339" y="600" width="150" height="70" as="geometry" />
        </mxCell>
        <mxCell id="8tFCOXeWuZoLk0ZFm1Za-15" value="yes" style="text;html=1;align=center;verticalAlign=middle;resizable=0;points=[];autosize=1;strokeColor=none;fillColor=none;" vertex="1" parent="1">
          <mxGeometry x="410" y="365" width="40" height="30" as="geometry" />
        </mxCell>
        <mxCell id="8tFCOXeWuZoLk0ZFm1Za-16" value="no" style="text;html=1;align=center;verticalAlign=middle;resizable=0;points=[];autosize=1;strokeColor=none;fillColor=none;" vertex="1" parent="1">
          <mxGeometry x="570" y="285" width="40" height="30" as="geometry" />
        </mxCell>
        <mxCell id="8tFCOXeWuZoLk0ZFm1Za-17" value="yes" style="text;html=1;align=center;verticalAlign=middle;resizable=0;points=[];autosize=1;strokeColor=none;fillColor=none;" vertex="1" parent="1">
          <mxGeometry x="410" y="540" width="40" height="30" as="geometry" />
        </mxCell>
        <mxCell id="8tFCOXeWuZoLk0ZFm1Za-18" value="" style="endArrow=classic;html=1;rounded=0;entryX=0;entryY=0.5;entryDx=0;entryDy=0;" edge="1" parent="1" target="8tFCOXeWuZoLk0ZFm1Za-5">
          <mxGeometry width="50" height="50" relative="1" as="geometry">
            <mxPoint x="290" y="460" as="sourcePoint" />
            <mxPoint x="210" y="310" as="targetPoint" />
            <Array as="points">
              <mxPoint x="250" y="460" />
              <mxPoint x="250" y="305" />
            </Array>
          </mxGeometry>
        </mxCell>
        <mxCell id="8tFCOXeWuZoLk0ZFm1Za-19" value="no" style="text;html=1;align=center;verticalAlign=middle;resizable=0;points=[];autosize=1;strokeColor=none;fillColor=none;" vertex="1" parent="1">
          <mxGeometry x="250" y="425" width="40" height="30" as="geometry" />
        </mxCell>
        <mxCell id="8tFCOXeWuZoLk0ZFm1Za-20" value="" style="endArrow=classic;html=1;rounded=0;exitX=0;exitY=0.5;exitDx=0;exitDy=0;" edge="1" parent="1" source="8tFCOXeWuZoLk0ZFm1Za-13">
          <mxGeometry width="50" height="50" relative="1" as="geometry">
            <mxPoint x="200" y="510" as="sourcePoint" />
            <mxPoint x="250" y="460" as="targetPoint" />
            <Array as="points">
              <mxPoint x="250" y="635" />
            </Array>
          </mxGeometry>
        </mxCell>
      </root>
    </mxGraphModel>
  </diagram>
</mxfile>
